<svg xmlns="http://www.w3.org/2000/svg" width="64" height="64" viewBox="0 0 64 64" role="img" aria-label="Logo Die halben Meter">
  <!-- Kreisbadge mit Türkis wie im Logo -->
  <defs>
    <linearGradient id="g" x1="0" y1="0" x2="1" y2="1">
      <stop offset="0" stop-color="#0ea5a6"/>
      <stop offset="1" stop-color="#11b1b2"/>
    </linearGradient>
  </defs>
  <circle cx="32" cy="32" r="29" fill="#fff"/>
  <circle cx="32" cy="32" r="27" fill="none" stroke="url(#g)" stroke-width="3"/>
  <!-- Baum + Schaukel in vereinfachter Form -->
  <g fill="none" stroke="#0ea5a6" stroke-width="2.6" stroke-linecap="round" stroke-linejoin="round">
    <!-- Baumkrone -->
    <path d="M22 24c0-3.5 3.2-6 7.2-6 1.6 0 3 .4 4.2 1.2 1.2-.8 2.6-1.2 4.2-1.2 4 0 7.2 2.5 7.2 6 0 2.7-1.8 4.8-4.6 5.7"/>
    <!-- Stamm -->
    <path d="M32 30v11"/>
    <!-- kleiner Hügel -->
    <path d="M19 41c3-2 7-2 10 0h10c3 0 5 1 6 3"/>
    <!-- Schaukelaufhängung und Sitz -->
    <path d="M26 31v9"/>
    <path d="M26 40h8"/>
    <path d="M34 31v9"/>
  </g>
</svg>


